HIERARCHY
ROOT Hips
{
	OFFSET 49.113201 0.271889 54.172401
	CHANNELS 6 Xposition Yposition Zposition Xrotation Yrotation Zrotation
	JOINT spine
	{
		OFFSET 0.000000 -0.477352 8.301029
		CHANNELS 3 Xrotation Yrotation Zrotation
		JOINT spine1
		{
			OFFSET 0.000000 -0.000002 10.456501
			CHANNELS 3 Xrotation Yrotation Zrotation
			JOINT spine2
			{
				OFFSET 0.000000 -0.000002 10.019203
				CHANNELS 3 Xrotation Yrotation Zrotation
				JOINT Neck
				{
					OFFSET 0.000000 -1.226414 25.723503
					CHANNELS 3 Xrotation Yrotation Zrotation
					JOINT Head
					{
						OFFSET 0.000000 -0.000001 7.771751
						CHANNELS 3 Xrotation Yrotation Zrotation
						End Site
						{
							OFFSET 0.000000 6.203937 18.812004
						}
					}
				}
				JOINT RightShoulder
				{
					OFFSET -4.218800 0.587437 10.820000
					CHANNELS 3 Xrotation Yrotation Zrotation
					JOINT RightArm
					{
						OFFSET 0.000000 -0.000002 14.191399
						CHANNELS 3 Xrotation Yrotation Zrotation
						JOINT RightArmRoll
						{
							OFFSET 0.000000 -0.000001 7.164078
							CHANNELS 3 Xrotation Yrotation Zrotation
							JOINT RightForeArm
							{
								OFFSET 0.000000 -0.000003 20.866508
								CHANNELS 3 Xrotation Yrotation Zrotation
								JOINT RightForeArmRoll
								{
									OFFSET 0.000000 -0.000001 8.039215
									CHANNELS 3 Xrotation Yrotation Zrotation
									JOINT RightHand
									{
										OFFSET 0.000000 -0.000003 16.132996
										CHANNELS 3 Xrotation Yrotation Zrotation
										End Site
										{
											OFFSET 0.000000 0.000000 0.100006
										}
									}
								}
							}
						}
					}
				}
				JOINT LeftShoulder
				{
					OFFSET 4.218800 0.587437 10.820000
					CHANNELS 3 Xrotation Yrotation Zrotation
					JOINT LeftArm
					{
						OFFSET 0.000000 -0.000002 14.191399
						CHANNELS 3 Xrotation Yrotation Zrotation
						JOINT LeftArmRoll
						{
							OFFSET 0.000000 -0.000001 7.164078
							CHANNELS 3 Xrotation Yrotation Zrotation
							JOINT LeftForeArm
							{
								OFFSET 0.000000 -0.000003 20.866508
								CHANNELS 3 Xrotation Yrotation Zrotation
								JOINT LeftForeArmRoll
								{
									OFFSET 0.000000 -0.000001 8.039215
									CHANNELS 3 Xrotation Yrotation Zrotation
									JOINT LeftHand
									{
										OFFSET 0.000000 -0.000003 16.132996
										CHANNELS 3 Xrotation Yrotation Zrotation
										End Site
										{
											OFFSET 0.000000 0.000000 0.100006
										}
									}
								}
							}
						}
					}
				}
			}
		}
	}
	JOINT RightUpLeg
	{
		OFFSET -7.357731 1.131810 -1.349209
		CHANNELS 3 Xrotation Yrotation Zrotation
		JOINT RightUpLegRoll
		{
			OFFSET 0.000000 -0.000003 18.916798
			CHANNELS 3 Xrotation Yrotation Zrotation
			JOINT RightLeg
			{
				OFFSET 0.000000 0.000004 -23.425598
				CHANNELS 3 Xrotation Yrotation Zrotation
				JOINT RightLegRoll
				{
					OFFSET 0.000000 -0.000004 23.502304
					CHANNELS 3 Xrotation Yrotation Zrotation
					JOINT RightFoot
					{
						OFFSET 0.000000 -0.000003 19.561699
						CHANNELS 3 Xrotation Yrotation Zrotation
						JOINT RightToeBase
						{
							OFFSET 0.000000 -0.000003 16.352600
							CHANNELS 3 Xrotation Yrotation Zrotation
							End Site
							{
								OFFSET 0.006931 0.912835 7.919441
							}
						}
					}
				}
			}
		}
	}
	JOINT LeftUpLeg
	{
		OFFSET 7.357731 1.131810 -1.349209
		CHANNELS 3 Xrotation Yrotation Zrotation
		JOINT LeftUpLegRoll
		{
			OFFSET 0.000000 -0.000003 18.916904
			CHANNELS 3 Xrotation Yrotation Zrotation
			JOINT LeftLeg
			{
				OFFSET 0.000000 -0.000004 23.425499
				CHANNELS 3 Xrotation Yrotation Zrotation
				JOINT LeftLegRoll
				{
					OFFSET 0.000000 -0.000004 23.719498
					CHANNELS 3 Xrotation Yrotation Zrotation
					JOINT LeftFoot
					{
						OFFSET 0.000000 -0.000003 19.344398
						CHANNELS 3 Xrotation Yrotation Zrotation
						JOINT LeftToeBase
						{
							OFFSET 0.000000 -0.000003 16.352600
							CHANNELS 3 Xrotation Yrotation Zrotation
							End Site
							{
								OFFSET -0.031063 0.912835 7.919434
							}
						}
					}
				}
			}
		}
	}
}
MOTION
Frames: 10
Frame Time: 0.041667
47.189899 -31.209614 98.833389 -2.175162 -0.257776 2.066069 -1.387383 -0.103545 0.135074 1.215108 -0.207206 0.259890 2.860168 -0.203978 0.270770 20.034072 2.139988 -1.337097 -5.950585 -1.355718 -1.228496 -3.204200 -71.665056 -5.036122 -72.813894 -121.372202 -49.951851 0.000001 -0.000022 0.000000 0.059576 -7.827767 0.208643 -0.000001 -0.000002 -3.022130 -5.000212 -7.998982 0.000126 3.788800 66.143361 -3.374392 -56.512111 111.808141 41.878741 0.000006 0.000003 -0.000005 6.117395 10.107318 0.055043 0.000007 -0.000016 3.003771 -5.000209 7.998802 -0.000143 -1.691281 -175.718856 0.439382 -179.999991 0.000005 -1.071993 172.904873 -3.044558 -0.688777 -0.000007 0.000002 0.098273 69.722284 6.890177 2.069390 25.456952 -7.353956 0.000010 -1.985164 174.163472 0.203233 -0.000005 0.000011 -1.156110 -10.958600 3.236654 1.043361 -0.000009 0.000001 -0.147211 68.608082 -6.932601 -2.050465 25.456907 7.354784 0.000010 
47.187401 -31.186512 98.830490 -2.161211 -0.256130 2.071244 -1.384593 -0.103524 0.134453 1.221638 -0.207412 0.259278 2.866698 -0.204203 0.269558 20.012263 2.162605 -1.336889 -5.945621 -1.375007 -1.227245 -3.205679 -71.638589 -5.035322 -72.767667 -121.392324 -49.891875 -0.000002 -0.000022 0.000000 0.059538 -7.807256 0.208450 -0.000003 -0.000003 -3.022279 -5.000212 -7.998983 0.000129 3.768334 66.148968 -3.350610 -56.528691 111.811856 41.879564 0.000006 0.000003 -0.000007 6.090431 10.097274 0.057994 0.000007 -0.000017 3.003769 -5.000208 7.998802 -0.000143 -1.733099 -175.717955 0.438548 -179.999991 0.000005 -1.071993 172.881049 -3.049362 -0.689665 -0.000007 0.000002 0.098483 69.726089 6.890174 2.069853 25.456953 -7.353955 0.000009 -2.023441 174.160603 0.204901 -0.000005 0.000011 -1.156150 -10.971639 3.238358 1.043798 -0.000008 0.000001 -0.147420 68.599654 -6.932623 -2.050599 25.456911 7.354785 0.000009 
47.183201 -31.163614 98.822601 -2.147490 -0.254536 2.076585 -1.381851 -0.103468 0.133841 1.228108 -0.207575 0.258705 2.873169 -0.204387 0.268363 19.990649 2.184604 -1.336674 -5.940666 -1.393688 -1.226049 -3.207448 -71.612532 -5.034863 -72.721700 -121.412746 -49.832316 0.000001 -0.000022 0.000001 0.059509 -7.786896 0.208265 -0.000003 -0.000003 -3.022412 -5.000211 -7.998983 0.000128 3.748089 66.154467 -3.327091 -56.545234 111.815586 41.880859 0.000005 0.000003 -0.000006 6.063643 10.087620 0.060880 0.000004 -0.000017 3.003770 -5.000209 7.998803 -0.000143 -1.774294 -175.717053 0.437867 -179.999991 0.000005 -1.070996 172.857403 -3.055156 -0.690655 -0.000007 0.000002 0.098694 69.730132 6.890213 2.070208 25.456950 -7.353955 0.000010 -2.060914 174.157762 0.206969 -0.000004 0.000011 -1.156210 -10.983974 3.239735 1.044182 -0.000008 0.000001 -0.147628 68.591423 -6.932620 -2.050715 25.456904 7.354784 0.000008 
47.180500 -31.145222 98.818497 -2.133939 -0.252980 2.082034 -1.379146 -0.103386 0.133235 1.234528 -0.207708 0.258158 2.879589 -0.204539 0.267179 19.969132 2.206167 -1.336441 -5.935728 -1.411943 -1.224885 -3.209416 -71.586564 -5.034642 -72.675856 -121.433291 -49.772869 -0.000000 -0.000022 0.000000 0.059487 -7.766636 0.208086 -0.000000 -0.000003 -3.022551 -5.000211 -7.998983 0.000128 3.728020 66.159862 -3.303771 -56.561941 111.819390 41.882495 0.000004 0.000003 -0.000005 6.036958 10.078058 0.063732 0.000004 -0.000016 3.003770 -5.000210 7.998803 -0.000143 -1.815076 -175.716151 0.437292 -179.999991 0.000005 -1.070996 172.833948 -3.060948 -0.692652 -0.000007 0.000002 0.098906 69.734360 6.890190 2.070742 25.456953 -7.353955 0.000010 -2.097821 174.154893 0.209317 -0.000005 0.000010 -1.156280 -10.995806 3.240882 1.044524 -0.000008 0.000001 -0.147838 68.583316 -6.932620 -2.050824 25.456911 7.354783 0.000008 
47.190300 -31.103016 98.813698 -2.120477 -0.251443 2.087550 -1.376462 -0.103289 0.132632 1.240918 -0.207823 0.257628 2.885989 -0.204675 0.266003 19.947714 2.227489 -1.336201 -5.930796 -1.429958 -1.223743 -3.211493 -71.560691 -5.034545 -72.630101 -121.453850 -49.713607 0.000000 -0.000022 -0.000001 0.059463 -7.746427 0.207910 -0.000002 -0.000003 -3.022670 -5.000216 -7.998982 0.000128 3.708040 66.165238 -3.280557 -56.578630 111.823195 41.884424 0.000005 0.000004 -0.000006 6.010355 10.068795 0.066535 0.000004 -0.000017 3.003769 -5.000209 7.998803 -0.000144 -1.855597 -175.715236 0.436778 -179.999991 0.000005 -1.070996 172.810616 -3.066742 -0.693651 -0.000007 0.000002 0.099119 69.738704 6.890204 2.071074 25.456952 -7.353955 0.000010 -2.134401 174.152024 0.211828 -0.000005 0.000010 -1.156360 -11.007337 3.241893 1.044843 -0.000009 0.000001 -0.148045 68.575202 -6.932619 -2.050934 25.456906 7.354783 0.000009 
47.183399 -31.084711 98.852600 -2.107051 -0.249909 2.093085 -1.373783 -0.103190 0.132031 1.247308 -0.207934 0.257101 2.892379 -0.204808 0.264828 19.926297 2.248741 -1.335941 -5.925850 -1.447915 -1.222591 -3.213614 -71.534934 -5.034501 -72.584468 -121.474518 -49.654447 -0.000000 -0.000023 -0.000000 0.059445 -7.726246 0.207735 -0.000001 -0.000003 -3.022799 -5.000211 -7.998983 0.000128 3.688092 66.170729 -3.257378 -56.595180 111.826917 41.886217 0.000003 0.000003 -0.000005 5.983758 10.059425 0.069342 0.000005 -0.000017 3.003769 -5.000210 7.998803 -0.000143 -1.896063 -175.714348 0.436279 -179.999991 0.000006 -1.070996 172.787284 -3.072534 -0.694654 -0.000007 0.000002 0.099332 69.743041 6.890185 2.071602 25.456952 -7.353955 0.000010 -2.170892 174.149183 0.214381 -0.000004 0.000011 -1.156440 -11.018868 3.242876 1.045162 -0.000008 0.000001 -0.148254 68.567190 -6.932627 -2.050935 25.456912 7.354784 0.000009 
47.172501 -31.073717 98.841995 -2.093559 -0.248362 2.098591 -1.371093 -0.103098 0.131427 1.253708 -0.208054 0.256566 2.898778 -0.204948 0.263650 19.904781 2.270122 -1.335663 -5.920916 -1.465991 -1.221440 -3.215647 -71.509062 -5.034362 -72.538924 -121.495214 -49.595373 0.000002 -0.000022 0.000000 0.059423 -7.706029 0.207561 0.000001 -0.000003 -3.022931 -5.000211 -7.998981 0.000129 3.668069 66.176111 -3.234116 -56.611859 111.830735 41.888030 0.000004 0.000004 -0.000006 5.957132 10.050056 0.072144 0.000004 -0.000017 3.003771 -5.000215 7.998802 -0.000143 -1.936649 -175.713433 0.435748 -179.999991 0.000005 -1.070996 172.763925 -3.077336 -0.695537 -0.000007 0.000002 0.099545 69.747283 6.890193 2.072040 25.456952 -7.353955 0.000010 -2.207555 174.146314 0.216860 -0.000005 0.000011 -1.156520 -11.030498 3.243926 1.045489 -0.000008 0.000001 -0.148462 68.559082 -6.932622 -2.051144 25.456906 7.354783 0.000009 
47.176701 -31.050409 98.807991 -2.079961 -0.246784 2.104008 -1.368374 -0.103024 0.130819 1.260139 -0.208196 0.256011 2.905209 -0.205111 0.262463 19.883275 2.291818 -1.335372 -5.915972 -1.484366 -1.220255 -3.217534 -71.483093 -5.034040 -72.493319 -121.515745 -49.536138 -0.000002 -0.000023 0.000001 0.059395 -7.685738 0.207380 -0.000003 -0.000003 -3.023058 -5.000211 -7.998983 0.000128 3.647917 66.181500 -3.210703 -56.630464 111.833918 41.891739 0.000005 0.000004 -0.000005 5.930426 10.040483 0.074964 0.000004 -0.000017 3.003770 -5.000209 7.998803 -0.000143 -1.977537 -175.712545 0.435140 -179.999991 0.000005 -1.070996 172.740402 -3.083138 -0.697558 -0.000007 0.000002 0.099757 69.751517 6.890203 2.072378 25.456953 -7.353955 0.000010 -2.244621 174.143459 0.219143 -0.000005 0.000011 -1.156590 -11.042529 3.245139 1.045849 -0.000008 0.000001 -0.148671 68.550955 -6.932618 -2.051153 25.456907 7.354784 0.000009 
47.169399 -31.013813 98.838203 -2.066177 -0.245159 2.109295 -1.365621 -0.102978 0.130204 1.266628 -0.208372 0.255427 2.911700 -0.205309 0.261263 19.861577 2.314004 -1.335053 -5.911023 -1.503229 -1.219018 -3.219180 -71.456838 -5.033431 -72.447707 -121.536209 -49.476818 0.000001 -0.000022 -0.000000 0.059366 -7.665327 0.207195 -0.000001 -0.000002 -3.023202 -5.000213 -7.998983 0.000128 3.627546 66.186978 -3.187038 -56.646987 111.837647 41.892818 0.000005 0.000003 -0.000004 5.903595 10.030715 0.077806 0.000005 -0.000017 3.003770 -5.000209 7.998803 -0.000143 -2.018921 -175.711643 0.434406 -179.999991 0.000006 -1.069999 172.716715 -3.088925 -0.698594 -0.000007 0.000002 0.099968 69.755438 6.890200 2.072835 25.456952 -7.353955 0.000010 -2.282334 174.140632 0.221115 -0.000004 0.000010 -1.156650 -11.055068 3.246610 1.046250 -0.000008 0.000001 -0.148880 68.542635 -6.932633 -2.051276 25.456907 7.354784 0.000010 
47.164501 -30.994116 98.812897 -2.052140 -0.243469 2.114396 -1.362804 -0.102972 0.129580 1.273189 -0.208597 0.254800 2.918258 -0.205554 0.260046 19.839693 2.336874 -1.334711 -5.906063 -1.522758 -1.217726 -3.220537 -71.430378 -5.032477 -72.400476 -121.556808 -49.415497 -0.000002 -0.000023 0.000000 0.059322 -7.644767 0.207000 0.000000 -0.000003 -3.023352 -5.000213 -7.998982 0.000128 3.606885 66.192572 -3.163041 -56.663505 111.841383 41.893290 0.000004 0.000003 -0.000005 5.876594 10.020542 0.080695 0.000004 -0.000017 3.003769 -5.000210 7.998803 -0.000143 -2.060996 -175.710755 0.433503 -179.999991 0.000006 -1.069999 172.692768 -3.094708 -0.699635 -0.000007 0.000002 0.100177 69.759154 6.890224 2.073207 25.456953 -7.353954 0.000010 -2.320963 174.137777 0.222656 -0.000005 0.000010 -1.156680 -11.068410 3.248446 1.046717 -0.000008 0.000001 -0.149088 68.534193 -6.932603 -2.051502 25.456907 7.354784 0.000008 
